<?xml version="1.0" encoding="utf-8"?>
<!-- Generator: Adobe Illustrator 22.0.0, SVG Export Plug-In . SVG Version: 6.00 Build 0)  -->
<svg version="1.1" id="Layer_1" xmlns="http://www.w3.org/2000/svg" xmlns:xlink="http://www.w3.org/1999/xlink" x="0px" y="0px"
	 viewBox="0 0 105.6 182.1" style="enable-background:new 0 0 105.6 182.1;" xml:space="preserve">
<style type="text/css">
	.st0{fill:#75796B;}
	.st1{font-family:'ProductSans-Regular';}
	.st2{font-size:17px;}
	.st3{fill:#353E35;}
	.st4{fill:#675E54;}
	.st5{fill:#766A62;}
	.st6{fill:#807369;}
	.st7{fill:#494E46;}
	.st8{fill:#3B483A;}
	.st9{fill:#615A4D;}
	.st10{fill:#585B50;}
	.st11{fill:#59534A;}
	.st12{fill:#484345;}
	.st13{fill:#4B5746;}
	.st14{fill:#6E6559;}
	.st15{fill:#35382F;}
	.st16{fill:#575F4E;}
	.st17{fill:#110F0B;}
	.st18{fill:#494D44;}
	.st19{fill:#3D4232;}
	.st20{fill:#475043;}
	.st21{fill:#796D64;}
	.st22{fill:#7E736E;}
	.st23{fill:#897B78;}
	.st24{fill:#7D706B;}
	.st25{fill:#50594A;}
	.st26{fill:#9E918B;}
	.st27{fill:#93857E;}
	.st28{fill:#8B7D74;}
	.st29{fill:#A69892;}
	.st30{fill:#877973;}
	.st31{fill:#9D8C88;}
	.st32{fill:#8D7F76;}
	.st33{fill:#766A60;}
	.st34{fill:#6C635E;}
	.st35{fill:#52564E;}
	.st36{fill:#565451;}
	.st37{fill:#5E5F57;}
	.st38{fill:#6C5E58;}
	.st39{fill:#2B2621;}
	.st40{fill:#5E6557;}
	.st41{fill:#666F5D;}
	.st42{fill:#565C4D;}
	.st43{fill:#8B8172;}
	.st44{fill:#978E85;}
	.st45{fill:#746C60;}
	.st46{fill:#5F4F43;}
	.st47{fill:#4D4037;}
	.st48{fill:#433731;}
	.st49{fill:#29221C;}
	.st50{fill:#4B4B41;}
	.st51{fill:#877E75;}
	.st52{fill:#7C7C6E;}
	.st53{fill:#958983;}
	.st54{fill:#8E8C7E;}
	.st55{fill:#7A7C6D;}
	.st56{fill:#686C5D;}
	.st57{fill:#625E51;}
	.st58{fill:#95857F;}
	.st59{fill:#CEBDB5;}
	.st60{fill:#4C302A;}
	.st61{fill:#38231E;}
	.st62{fill:#614037;}
	.st63{fill:#514435;}
	.st64{fill:#615548;}
	.st65{fill:#65675E;}
	.st66{fill:#54473C;}
	.st67{fill:#867876;}
	.st68{fill:#36261F;}
	.st69{fill:#686F62;}
	.st70{fill:#251A14;}
	.st71{fill:#6F4E45;}
	.st72{fill:#613F37;}
	.st73{fill:#816559;}
	.st74{fill:#6A5A4A;}
	.st75{fill:#312821;}
	.st76{fill:#B5ADAB;}
	.st77{fill:#918282;}
	.st78{fill:#C8BFAC;}
	.st79{fill:#797265;}
	.st80{fill:#5A4438;}
	.st81{fill:#765849;}
	.st82{fill:#7C584C;}
	.st83{fill:#533730;}
	.st84{fill:#5B3B34;}
	.st85{fill:#675C4B;}
	.st86{fill:#8B7D7C;}
	.st87{fill:#938383;}
	.st88{fill:#6D5D56;}
	.st89{fill:#452D27;}
	.st90{fill:#503029;}
	.st91{fill:#624441;}
	.st92{fill:#745652;}
	.st93{fill:#72544D;}
	.st94{fill:#796D6A;}
	.st95{fill:#5D332C;}
	.st96{fill:#2B0E0B;}
	.st97{fill:#5C3C39;}
	.st98{fill:#614139;}
	.st99{fill:#7B6E66;}
	.st100{fill:#6C4D49;}
</style>
<text transform="matrix(1 0 0 1 20.9212 159.7943)" class="st0 st1 st2">Old Dave</text>
<g>
	<path class="st3" d="M-10,113.3c-0.4-1.2-1.3-2-2.5-2.1c-1.2-0.1-2.2-0.4-3.3-0.8c0,0.4-0.1,0.8-0.1,1.3c-0.1,1-0.3,2-0.4,3
		c0.5,0.7,0.8,1.4,1,2.2h4C-10.4,115.9-9.4,114.9-10,113.3z"/>
	<path class="st4" d="M71.8,116.8c-7.1,0-14.2,0-21.3,0c-1.4-1.2-2.7-2.6-3.6-4.3c-0.8-1.6,0.3-3.8,2.3-4.7c1.2-0.5,2.4,0.2,3.1,1.9
		c0.9,2,1.7,2.4,3.6,1.9c0.8,0.2,1.4,0.7,2.1,1.1c0.9,0.5,1.9,0.6,2.8,0.1c1.3-0.4,2.4-1.4,4-0.9c0.4,0.1,0.6-0.4,0.9-0.7
		c0.7-0.8,1.6-1.4,2.5-1.7c-2.8-0.2-5.4-1-7.5-3.1c-0.5-0.5-1-0.9-1.5-1.2c-1-0.7-1.2-1.4-0.5-2.3c0.9-1.4,1.3-2.8,0.6-4.4
		c-0.3-0.6,0.2-1.1,0.5-1c1.3,0.5,2.2-1,3.3-0.5c1.2,0.4,2,1.3,2.8,2.3c1.3,1.9,3.5,2.7,5,4.4c0.5,0.6,1.2,1,1.7,1.7
		c0.1,0.2,0.1,0.3,0.2,0.5c0.1,0.7-1,1.3,0.1,2c1.3,0.8,2.4,2,4.1,1.2c0.9-0.4,1.9-0.6,2.8-1c1.1-0.5,2.4,0.1,3.2,1.1
		c0.1,0.2,0.1,0.3,0.1,0.5c0,0.2,0.1,0.6-0.1,0.6c-2,0.4-3.6,2.1-5.8,2.1c-1,0-2,0.2-2.9,0.5c-1.3,0.3-2.5,0.7-1.9,2.5
		C72.7,116.1,72.1,116.4,71.8,116.8z"/>
	<path class="st5" d="M56,112.6c-3.3,0.5-3.4,0.4-4.8-2.9c-0.4-1-1.1-1.3-2.1-0.6c-2,1.3-2.2,2.6-0.5,4.5c0.8,1,1.7,1.9,1.8,3.3
		c-3.7,0-7.5,0-11.2,0c-1.6-1.1-2.1-2.8-2.7-4.5c0.6-0.9,0.7-1.8,0.7-2.8c-0.1-3.1,0.9-4.4,3.8-5.4c0.3-0.1,0.5-0.2,0.8-0.3
		c0.6-0.3,0.9,0.5,1.4,0.5c1,0.2,1.7-0.3,2.2-1.1c0.5-0.8,0.9-1.6,1.4-2.4c1.1-1.8,2.2-1.9,3.8-0.2c0.2,0.6,0.6,1.2,1.1,1.7
		c0.1,2.8,1.6,4.9,3.3,6.9C55.8,110.1,56.7,111.2,56,112.6z"/>
	<path class="st6" d="M37.8,112.6c0.1,1.5,1.2,2.7,1.4,4.2c-1,0-2.1,0-3.1,0c-0.4-0.2-0.8-0.4-1-0.9c-1.4-3-4.2-4-6.9-5.1
		c-2-0.8-4.1-1.3-6-2.5c-0.5-0.3-1.2-0.5-1.2-1.3c0-0.2,0.1-0.5-0.1-0.7c-0.4-0.3-0.4,0.2-0.6,0.3c-0.5,0.6-1,1.4-1.9,0.6
		c-0.8-0.6-1.7-1.3-0.9-2.5c1.3-0.4,2.6-2.4,2.4-3.7c0-0.2,0-0.4,0.2-0.6c0.3-0.2,0.5-0.7,0.8-0.9c0.5-0.6,1.1-0.9,1.9-0.3
		c0.6,0.5,0.7,1.1,0.1,1.7c-0.1,0.1-0.1,0.5,0,0.8c0.2,1.4,1,1.5,2.1,0.8c1.1-0.7,2-1.5,2.8-2.5c0.8-0.9,1.6-2.4,3.2-1.1
		c0.5,0.4,1.4-0.5,1.8,0.4c0.3,0.4,0.7,0.9,1.1,1.2c0.3,0.3,0.6,0.6,0.5,1.2c-0.3,1.9,0,3.9,1.1,5.4
		C36.6,108.8,37.3,110.6,37.8,112.6z"/>
	<path class="st7" d="M116.5,116.8c-7.8,0-15.6,0-23.4,0c-0.1-0.2-0.4-0.4-0.3-0.6c0.8-1.5,0.2-2.4-1-3.3c-0.7-0.5-1.2-1.4-0.6-2.3
		c0.6-0.9,1.5-0.6,2.2-0.2c1.9,1,4.2,0.5,6,1.9c0.5,0.4,1.2-0.7,1.9-0.2c0.2,0.1,0.3,0.1,0.5,0.2c0.7,0.3,1.5,0.4,1.5,1.4
		c0,0.6,0.4,0.7,1,0.6c1.1-0.1,2.2-0.3,3.3-0.5c0.7-0.2,0.7-0.8,0.4-1.1c-1.2-1.1-1.6-2.9-3.4-3.4c-0.6-0.1-1-0.6-1.2-1.2
		c-0.4-1.3-1.4-1.9-2.7-2.2c-1.2-0.3-2.4-0.9-3.5-1.4c-0.7-0.3-1.7-0.9-1.2-2c0.4-1,1.3-1.2,2.2-0.8c0.7,0.3,1-0.1,1.5-0.3
		c2,0.6,3.4,2.1,5,3.3c2.2,1.6,4.4,3.3,6.9,4.3c0.7,0.9,2,0.6,2.6,1.5c0.7,1.7,1.6,3.3,2.5,4.8C117,116,116.7,116.4,116.5,116.8z"/>
	<path class="st8" d="M6.2,115.8c-0.9-0.6-1.5-1.6-2.7-1.7c-0.2,0-0.4,0-0.5-0.1c-1-0.3-2.2-0.3-2.7-1.5c-1.2,0.1-2.2-1.2-3.6-0.6
		c-2.4,1-4.3,0.2-5.7-2c-0.5-0.7-1.2-1.8-2.3-1.7c-1.7,0.2-2.9-0.5-4.1-1.8l-0.1,0.5c0,1.4-0.1,2.9-0.3,4.3c0.8,0.4,1.7,0.7,2.7,0.7
		c1.9,0,2.7,1.3,2.1,3c-0.2,0.6-0.4,1.1-0.3,1.7H6.1C6.3,116.5,6.7,116.1,6.2,115.8z"/>
	<path class="st9" d="M35.1,116.8c-4.3,0-8.6,0-12.9,0c-1.7-0.8-3.2-1.9-4.5-3.2c-0.4-0.4-1-0.8-0.8-1.6c0.5-0.5,0.2-1.1,0.1-1.6
		c-0.1-0.4-0.2-0.8-0.3-1.2c-0.2-1-0.2-2.1,0.5-2.9c0.3-0.4,2.1,1.2,2.4,2.2c0.1,0.3,0.3,0.3,0.3,0.5c0.3,0.4,0.8,0.9,1.3,0.6
		c1.4-0.6,2.7,0.3,4.1,0c0.3-0.1,0.6,0.1,0.8,0.2c1.2,1.3,2.7,1.1,4.2,0.7c1-0.2,1.8,0.1,2.1,1c0.5,1.4,1.6,2.4,2.4,3.6
		C35.1,115.8,35.8,116.3,35.1,116.8z"/>
	<path class="st10" d="M101.1,113.3c-2.5-0.3-4.8-1.5-7.2-2c-0.6-0.1-1.4-0.6-1.7,0.2c-0.3,0.7,0.5,1.1,1,1.5c0,0,0.1,0.1,0.1,0.1
		c0.6,0.5,2.1,0.7,1.8,1.3c-0.4,0.9-0.8,2.2-2.1,2.5c-2.1,0-4.2,0-6.3,0c-0.6-0.5-1-0.8-0.7-1.8c0.3-1.1-0.1-2.2-0.3-3.4
		c-0.1-0.9-1.2-0.8-1.9-1c-0.5-0.2-1.4,0.1-1.4-0.9c0-0.1,0-0.2,0-0.3c0-0.2,0-0.3,0.2-0.5c1.5-0.6,2.6-1.7,3.8-2.7
		c1.9-0.8,3.7-0.6,5.3,0.9c0.4,0.4,0.8,0.8,1.2,1.2c0.8,0.9,1.5,1.4,2.8,0.6c0.6-0.4,1.7-0.1,2.4,0.3c1.3,0.7,1.9,2.1,3,3
		C101.7,112.8,101.2,113,101.1,113.3z"/>
	<path class="st11" d="M82.6,109.8c0.6,0.1,1.2,0.3,1.8,0.4c0.3,0.6,0.2,1.1,0,1.6c-0.6,0.6-1.3,1.1-1.8,1.9
		c-1.4,2.1-3.5,2.7-5.8,2.8c-0.5,0-1-0.1-1.5,0.3c-1.2,0-2.3,0-3.5,0c-0.1-0.7-0.3-1.3-0.9-1.8c-1-1-0.6-1.6,0.5-2
		c0.4-0.2,0.8-0.4,1.3-0.5C76,111.8,79.3,110.9,82.6,109.8z"/>
	<path class="st12" d="M116.5,116.8c-1.1-1.8-2.4-3.6-3.1-5.6c1-0.9,2,0.1,3,0.1c0.2,0.1,0.4,0.1,0.7,0.2c0.6,0.1,0.7,1.3,1.5,0.6
		c0.7-0.6,1.3-1.3,1.5-2.2c0.1-0.6-0.4-0.9-0.9-1c-0.8-0.2-1.6-0.6-2.1-1.2c-0.5-0.5-0.7-1.1,0.2-1.5c2.4,0.1,4.4,1.1,6.1,2.7
		c-0.1,2.7,0.2,5.3-0.2,8C120.9,116.8,118.7,116.8,116.5,116.8z"/>
	<path class="st13" d="M6.1,116.8c-1.1-0.7-2.1-1.4-3.2-2.1c0-0.2,0-0.3-0.1-0.5c-1.6-2.6-1.6-2.6,1-4.1c0.7-0.5,1.5-0.4,2.2-0.2
		c0.8,0.6,1.5,1.2,2.4,0c0.4-0.5,1.1-0.2,1.6,0.3c0.8,1,1.4,2.1,1.8,3.3c-0.1,1.3,1,1.3,1.9,1.6c0.8,0.3,1.6,0.5,0.8,1.6
		C11.7,116.8,8.9,116.8,6.1,116.8z"/>
	<path class="st14" d="M35.1,116.8c-0.7-2-2.8-3.1-3.3-5.2c-0.2-0.8-1.2-0.8-2-0.4c-0.6,0.3-1.1,0.7-1.5,1.1
		c-0.8,0.7-1.5,0.9-1.9-0.4c-0.3-1-0.9-1.3-1.8-1c-1,0.3-2.1-0.6-3,0.6c-0.3,0.4-0.9,0-1.2-0.4c-0.4-0.5-0.7-1.1-1-1.6
		c0.5-0.8-0.4-1.9,0.6-2.6c0.5-0.4,0.9-1.1,1.5-0.2c3,1.8,6.1,3.3,9.5,3.9c1.1,0.2,1.8,0.8,2.3,1.7c1,1.5,1.9,3,2.8,4.6
		C35.8,116.8,35.4,116.8,35.1,116.8z"/>
	<path class="st15" d="M75.2,116.8c0.2-0.2,0.4-0.5,0.7-0.5c3.3-0.4,5.4-2.4,7.3-4.8c0.1-0.1,0.3-0.2,0.4-0.3
		c1.5-0.9,2.1-0.6,2.3,1.1c0.1,0.9,0.3,1.9,0.3,2.8c0,0.9-0.4,1.5-1.5,1.3c-0.9-0.2-1.7-0.2-2.5,0.4
		C79.9,116.8,77.6,116.8,75.2,116.8z"/>
	<path class="st16" d="M14.5,116.8c-1.4-0.6-3.1-0.9-3.5-2.8c1.1-1.5,3.2-2.1,4.6-1.1c0.7,0.5,1.3,0.6,2,0.6
		c0.8,0.7,1.7,1.3,2.4,2.1c0.4,0.4,0.7,0.6,0.3,1.2C18.4,116.8,16.4,116.8,14.5,116.8z"/>
	<path class="st17" d="M123.2,88.9c0.1,0,0.2,0,0.3,0c0,8.8,0,17.7,0,26.5c0,0.5,0.4,1.1-0.3,1.4c0-2.7,0-5.3,0-8
		c-0.5-0.5-0.9-1-0.9-1.7c0-0.2,0-0.6-0.1-0.7c-1.4-0.9-1.6-2.3-1.3-3.8c-0.2-0.3-0.5-0.5-0.6-0.8c-0.1-0.8,0.1-1.4,1-1.7
		c0.6-0.2,1-0.5,1.2-1.2c0.4-1.1,0.1-2.3,0-3.4c-0.1-1.9-0.3-3.9,0.1-5.8c0.1-0.2,0.1-0.4,0.2-0.6C122.8,89,123,88.9,123.2,88.9z"/>
	<path class="st18" d="M82.2,116.8c0.5-0.6,1.1-1,1.9-1c1,0.1,1.5-0.2,0.9-1.3c-0.3-0.6-0.3-1.2-0.1-1.9c0.3-1.1-0.2-1.7-1.4-1.5
		c0.2-0.3,0.5-0.7,0.7-1c1.9,0.5,3.3,2.9,2.7,5c-0.2,0.6-0.4,1.1-0.3,1.7C85.3,116.8,83.7,116.8,82.2,116.8z"/>
	<path class="st19" d="M20.4,116.8c-0.8-1-1.7-2-2.8-2.8c-1,0.1-1.5-0.5-1.5-1.5c0.1-0.3,0.3-0.6,0.7-0.6c0.2,0,0.4,0.2,0.5,0.4
		c1.4,1.8,3.5,2.7,4.9,4.5C21.6,116.8,21,116.8,20.4,116.8z"/>
	<path class="st20" d="M-0.1,111.5c-0.7-0.9-4.3-1.6-5.2-1.1c-0.9,0.5-1.7,0.3-2-0.4c-0.5-1.4-1.6-2.2-2.2-3.5
		c-0.7-1.5-2-1.7-3.2-1.2c-1.1,0.5-1.4-0.1-1.7-0.8c-0.3-0.7-0.7-1.5-1.5-1.7c0.2,1.3,0.4,2.7,0.4,4l0.2,1.3
		c0.8,1.1,1.7,1.7,3.1,1.2c1.2-0.4,2,0.3,2.8,1.2c1.2,1.5,2.6,3.5,4.8,2.7c1.7-0.6,3.2-0.6,4.8,0C0.9,112.6,0.3,112-0.1,111.5z"/>
	<path class="st21" d="M70.3,104.3c-1.7-1.6-3.7-3-5.1-4.9c-0.4-0.5-0.9-0.9-1.4-1.2c-1-0.7-2.1-0.1-3,0.2c-1,0.3-0.3,1.2-0.2,1.8
		c0,1.1,0.1,2.2-0.6,3.2c-0.6,0.8-0.3,1.4,0.4,1.9c2.8,2.1,5.7,3.8,9.4,3.4c0.3,0,0.6-0.1,0.8,0.3c0.1,0.3-0.1,0.6-0.4,0.7
		c-3,1.5-5.6,3.9-9.2,4.5c-0.7-0.6-0.3-1,0.3-1.3c1.3-0.6,1.2-1.5,0.5-2.5c-0.6-0.8-1-1.7-1.7-2.4c-0.5-0.6-0.7-1.3-1.7-1.1
		c-0.6,0.1-0.9-0.6-1.3-1c-0.4-0.7-1-1.3-1.5-1.9c-1-1.1-0.6-2.2,0.8-2.7c0.3-0.1,0.7-0.1,1-0.3c0.5-0.3,1.2-0.6,0.5-1.5
		c-1.3-2-0.3-3.6,2.1-3.9c-1.3,0.1-2.9,1.2-3.3-1c0-1.9,0.8-2.4,2.5-1.7c0.8,0.3,1.4,1.1,2.4,0.7c1.7,0.5,2.6,2,3.7,3.2
		c1,1,1.9,2.1,3.1,2.9c0.8,1.4,1.1,3,2.4,4.1C71,103.7,70.8,104.2,70.3,104.3z"/>
	<path class="st22" d="M57.4,105c1.9,0.8,3.3,2.2,4.4,3.8c0.5,0.8,1,1.5,1.8,2c1.1,0.7,0.7,1.3-0.1,1.8c-0.9,0.5-1.7,0.9-2.6,1.4
		c-2,1-3.3-0.7-4.9-1.4c-1.6-3.5-4.4-6.4-5.6-10.1c0.2-0.1,0.4-0.3,0.7-0.4c1,0.2,1.5,0.7,1.5,1.7c0,0.9,0.5,1.5,1.2,2.1
		c0.7,0.5,1.3,1.1,1.9,1.7c0.5,0.4,1.1,1.2,1.8,0.6c0.6-0.5,0.1-1.2-0.1-1.7C57.1,105.9,56.7,105.4,57.4,105z"/>
	<path class="st23" d="M70.3,104.3c-0.7-1.7-2.2-2.8-2.8-4.6c1.4-0.7,1.8,0.7,2.5,1.3c0.5,0.4,0.9,1,1.4,1.4c0.8,0.6,1.7,1,2.7,0.4
		c2.2,0.6,4,2.3,6.3,2.7c1.3,0.2,2,0.9,2.7,1.9c0.4,0.6,0.5,1.2,0.1,1.8c-0.2,0.1-0.3,0.2-0.5,0.2c-3.1-0.2-6.1-0.8-9.1-1.2
		c-1.4-0.2-1.4-1.5-1.9-2.4C71.3,105.2,70.8,104.7,70.3,104.3z"/>
	<path class="st24" d="M71.7,105.7c0.9,1.2,2.1,1.8,3.6,1.7c1.6,0,2.9,0.7,4.4,1.2c1.1,0.3,2.1,0.5,3.3,0.6c0.1,0.1,0.1,0.2,0.1,0.2
		c0,0.1-0.1,0.1-0.1,0.1c-0.1,0-0.2,0-0.3,0c-2.1-0.3-4.1-0.3-6,0.9c-1.3,0.9-4.4-1.2-4.7-3C71.8,106.8,71.8,106.2,71.7,105.7z"/>
	<path class="st25" d="M4,111.2c0.2-0.4,0.3-0.8,0.2-1.2c-0.1-0.2-0.3-0.3-0.5-0.4c-1.8,0.6-3.4-0.1-4.9-1c-1-0.5-1.9-1.3-3.2-1
		c-1.3,0.2-2.3-0.3-3.1-1.2c-0.9-1.2-2.2-1.8-3.5-2.4c-1.7-0.8-3.6-1.5-5.3-2.4c0.1,0.6,0.2,1.1,0.3,1.7c0.6,0.4,1,0.9,1.4,1.4
		c0.4,0.6,0.8,0.9,1.6,0.8c2.2-0.3,2.8,0.2,3.5,2.4c0.6,2.1,2.5,3.1,4.6,2.6c1.4-0.3,4.5,0.2,5.1,1.7c0.5,1.4,1.5,2,2.7,2.6
		c0.5-0.5,0.2-0.9,0-1.4C2.3,112.1,2.5,111.4,4,111.2z"/>
	<path class="st26" d="M50.8,102.8c-0.1-0.1-0.2-0.2-0.4-0.3c-0.3-0.5-0.5-0.9-0.8-1.4c-0.5-1.3-1.4-2-2.8-2.4
		c-1.6-0.4-2-1.8-1.1-2.9c1.6-0.5,3.4-0.6,5.1-0.8c0.6,0,0.9-0.7,1.5-0.5c0.9,0.1,1.8,0.4,2.7,0.5c1.4,0.7,2.2,1.9,2.1,3.4
		c0,1.2-0.5,2.3-2.1,2.2c-1.2-0.1-1.4,0.3-0.7,1.4c0.9,1.6,0.5,2.5-1.2,2.8C52,104.6,51.7,103.3,50.8,102.8z"/>
	<path class="st27" d="M37.8,112.6c-1.9-3.1-4.9-5.7-4.6-9.9c0-0.5-0.4-1.1-0.6-1.6c0.2-1,0.8-0.8,1.3-0.4c0.8,0.6,1.7,1,2.5,1.6
		c0.7,0.4,1.3,0.5,1.9-0.2c1-1.2,2-1,3.1,0.1c0.7-0.3,0.3-1.8,1.5-1.5c0.8,0.1,1.6,0.1,1.6,1.2c0.1,1.5-0.5,2.3-2.1,2.7
		c-3.4,0.7-4.7,3-4.5,6.3C37.9,111.4,37.9,112,37.8,112.6z"/>
	<path class="st28" d="M42.4,104.6c0.3-0.5,0.7-1,1-1.6c0.4-0.9-0.1-1.4-1-1.5c-1,1.2-1.9,0.3-2.8-0.1c-0.4-0.2-0.3-0.7-0.1-1.1
		c0.4-0.5,0.8-1,1.3-1.4c0.8-0.5,1.9-0.4,2.5-1.2c0.6-0.5,1-1.1,1.6-1.5c0.6-0.4,1.1-0.6,1.3,0.4c-0.1,0.7,0.3,1.2,0.9,1.1
		c2-0.2,2.2,1.1,2.4,2.5c0,0.3,0.1,0.6,0.1,0.9c-0.9-0.9-1.7-0.8-2.3,0.4c-0.3,0.7-0.7,1.3-1.1,2C45.2,105.8,44.7,106,42.4,104.6z"
		/>
	<path class="st29" d="M41.7,99.3c-0.2,0.2-0.4,0.4-0.6,0.6c-0.3,0.3-0.8,0.6-0.5,1.1c0.2,0.5,0.8,0.4,1.2,0.4c0.2,0,0.5,0,0.7,0
		c-0.1,0.3-0.2,0.7-0.3,1c-0.2,0.5-0.5,1-0.8,1.7c-0.2-0.5-0.4-0.8-0.5-1.1c-0.2-0.4-0.3-0.8-0.8-0.8c-0.6,0-0.8,0.4-0.9,0.9
		c-0.5,1.8-1.2,1.5-2.4,0.5c-1.2-1-2.6-1.7-3.9-2.5c-0.2-0.3-0.5-0.7-0.7-1c-0.1-0.4-0.5-0.7-0.8-0.9c-0.8-0.8-1.6-0.9-2.6,0
		c-1.5,1.3-3.1,2.5-4.9,3.3c-0.7,0.3-1.3,0.5-1.8-0.3c-0.1-0.5,0.2-0.9,0.3-1.3c0.2-1-0.3-0.9-1-0.7c-0.6,0.3-1.2,0.2-1.2-0.5
		c0-0.8-0.6-1.8,0.5-2.3c0.6-0.3,1.2-0.5,1.8-0.7c1.3-0.3,1.8-0.9,1-2.1c0.1-0.3,0.3-0.5,0.6-0.6c1.5-0.1,2.7-0.8,4-1.4
		c0.6-0.3,1.2-0.3,1.7,0.2c0.4,1.1,1.4,1.2,2.2,1.1c1.4-0.2,2.9,0.2,4.2-0.5c0.6-0.3,1.1,0.1,1.7,0.2c1.8,0.1,2.8,1.4,3.7,2.7
		c0.2,0.9,0.2,0.9-0.9,1.5c1.5-0.7,1.5-0.7,2.1,0.3C42.8,98.6,42.8,98.6,41.7,99.3z"/>
	<path class="st30" d="M20.7,100.7c-0.1,2-0.6,3.8-2.8,4.5c-1-0.1-1,0.7-1.1,1.3c-0.1,0.2-0.1,0.5-0.2,0.8c-0.1,0.7-0.2,1.5-1.1,1.6
		c-0.6,0.1-1-0.5-1.4-1c-0.2-0.2-0.4-0.6-0.6-0.9c-0.6-1.4-0.4-2.8-0.7-4.3c-0.2-1.3-0.8-2.3-1.8-3c-0.7-0.5-1.2-1.1-1.1-2
		c-0.3-1,0.2-1.7,1-2.3c1.3-0.4,2.3-1.4,3.6-1.9c1.8,0.9,3.2,2.5,4.8,3.6c1.1,0.8,0.7,2,0.5,3.1c0,0.2-0.2,0.3-0.3,0.5
		c0-0.3,0.3-0.3,0.5-0.4C20.3,100.4,20.6,100.6,20.7,100.7z"/>
	<path class="st31" d="M20.7,100.7c-0.8,0.6-1.6,1.2-2.7,2c0.3-1.3,1-1.9,1.4-2.7c0.5-0.9,0.4-1.5-0.4-2.1c-1.6-1-3-2.2-4.2-3.6
		c-0.7-0.6-0.2-1.1,0.2-1.3c0.6-0.3,0.9-0.8,1.4-1.2c0.8-0.4,1.4-1.1,2.2-1.4c1.4,0,2.2,0.7,2.8,1.8c0.6,1.1,1.7,1.7,2.5,2.5
		c1.1,0.5,1.3,1.1,0.1,1.8c-0.7,0.4-1.4,0.7-2.2,1.1c-1.2,0.5-1.7,1.2-0.7,2.4C21,100.3,20.9,100.5,20.7,100.7z"/>
	<path class="st32" d="M21.8,102.1c2.4-0.8,4.4-2.4,6.4-3.7c2-1.3,2.3-1.2,3.4,0.8c0.1,0.3,0.2,0.5,0.3,0.8c-2.4-1-2.4-0.9-3.9,1.1
		c-1.2,1.6-2.8,2.6-4.6,3.5c-0.6,0.3-1.1,0.1-1.2-0.5C22,103.5,21.9,102.8,21.8,102.1z"/>
	<path class="st33" d="M14.1,107c0.4,0.4,0.7,1.1,1.4,0.8c0.6-0.3,0.5-1,0.6-1.5c0-0.4,0.1-0.8,0.2-1.2c0.2-0.5,0.3-1.1,1-1.1
		c0.7,0,0.6,0.7,0.7,1.2c0.2,0.6,0.2,1.4,1.1,1.3c0.7,0,0.9-0.7,1.1-1.2c0.2-0.5,0.2-1,0.9-1.4c0.6,0.8,0.5,1.8,0.4,2.6
		c-1.6,0.2-1.2,2-2.1,2.8c-0.5-0.7-0.6-2.4-1.6-2.1c-1,0.4-0.1,1.7,0.1,2.6c0.2,0.9,0.4,1.7-0.6,2.2c-0.1,0-0.2,0-0.3-0.1
		c-2-0.7-2.6-2.4-3.3-4.1C13.7,107.7,13.4,107.2,14.1,107z"/>
	<path class="st34" d="M110.9,109.9c-3.8-1.4-6.4-4.4-9.7-6.5c-0.5-0.3-1-0.6-1.4-0.9c-0.8-0.3-1.7-0.4-2-1.4c0,0,0-0.1,0-0.1
		c0,0,0,0-0.1,0c-0.2,0.2-0.4,0.1-0.6,0c-0.6-0.3-0.7-0.9-0.9-1.4c0.1-1.6,1.7-0.9,2.4-1.7c-0.5-0.4-1-0.8-1.6-1.3
		c-0.5-0.4-0.8-0.8-0.6-1.5c0.2-0.7,0.8-0.8,1.3-0.7c0.7,0.1,1.1-0.4,1.6-0.8c0.2-0.1,0.3-0.2,0.5-0.2c1.8,1.2,3.8,2.1,5.5,3.5
		c0.7,0.4,1.3,0.9,1.1,1.9c-0.1,0.9-0.6,1.1-1.4,1c-0.2-0.1,0.1,0.3,0,0.1c0-0.1,0-0.1,0.2-0.1c0.6,0.2,1.1,0.5,1.6,0.9
		c2.3,2.1,4.5,4.2,7.1,5.9c0.5,0.4,0.8,1,1.2,1.4c0.7,0.7-0.3,2.3-1.3,2C112.7,109.9,111.8,110.2,110.9,109.9z"/>
	<path class="st35" d="M96.5,99.4c0.4,0.3,0.8,0.6,1.1,1c0.4-0.1,0.7-0.1,0.6,0.4c0.5,0.6,1,1.1,1.4,1.7c-0.2,0-0.3,0.1-0.5,0.1
		c-0.7,0.2-2-0.4-2.1,0.6c-0.1,1.2,1.2,1.2,2.1,1.4c1,0.3,2.2,0.3,3,0.8c2.1,1.3,3.5,3.5,5.5,5c0.7,0.5,1,2,2,2.7
		c0.3,0.2,0.6,0.6,0.5,1c-0.2,0.5-0.6,0.5-1,0.4c-1.5-0.1-3,0.1-4.5,0.5c-1.7,0.5-2.1-1.2-3.1-1.8c0-0.7,0.5-0.8,1.1-0.8
		c0.6,0.1,1.2,0.3,2,0c-1.3-0.8-2.1-2-3.4-2.7c-1.5-0.8-1.9-2.6-3.2-3.7c-0.8-0.6-1.4-1.7-2.6-0.9c-0.2,0.2-0.5-0.2-0.7-0.4
		c-1.6-1.6-2.5-3.7-4.3-5.2c-0.6-0.5-1.2-1.6-0.4-2.4c0.6-0.7,1.4-0.4,2.2,0.2c1.1,0.9,1.2,0.9,2-0.1c0.1-0.2,0.3-0.3,0.6-0.4
		C95.4,97.6,96.8,97.8,96.5,99.4z"/>
	<path class="st36" d="M110.9,109.9c0.7-0.3,1.5-0.6,2.3-0.7c0.4,0,0.7-0.2,0.8-0.5c0.1-0.5-0.2-0.8-0.5-1c-2.9-1.7-5.1-4.1-7.6-6.3
		c-1-0.9-2.4-1.1-3.2-2.3c2.6-0.2,2.6-0.2,1.8-1.5c0-0.2,0.1-0.3,0.2-0.4c1.4,0.2,2.7,0.8,3.7,1.8c1.3,1.3,2.8,2.5,4.2,3.7
		c0.9,0.6,2,1.1,2.8,1.8c0.4,0.4,0.9,0.7,0.9,1.3c-0.1,1.1,0.5,1.8,1.4,2.3c0.5,0.2,1,0.6,1.5,0.8c1.2,0.5,1.1,1.2,0.5,2
		c-0.9,1.5-1.9,1.8-3.7,1.3c-0.9-0.4-1.9-0.7-2.8-1.1C112.5,110.8,111.7,110.3,110.9,109.9z"/>
	<path class="st37" d="M95.1,103.9c2.1,0.7,3.6,2,4.8,3.9c1.2,2,3.5,2.6,5.2,4c0.6,0.5,2,0.7,1.7,1.7c-0.4,1.1-1.6,0.4-2.5,0.3
		c-1,0-2-0.2-2.9-0.4c-0.1,0-0.2,0-0.3,0c-0.6-0.8-1.3-1.5-1.9-2.3c-0.9-1-1.9-1.6-3.3-0.8c-1.6,0.8-2.7-0.5-3.5-1.5
		c-1.5-2-3.3-2.4-5.5-1.7c-0.5-0.1-0.7-0.4-0.7-0.9c0.5-2,1.3-4,2.3-5.9c0.2-0.4,0.3-0.7,0.7-0.8c1.8,0.2,2.7,1.4,3.5,2.8
		c0.3,0.5,0.2,0.9-0.1,1.3c-0.5,0.7-1.2,1.3-0.5,2.1c0.7,0.9,1.4,1.9,2.7,1.7c1.9-0.2,3.3,0.5,4.3,1.6c-1.3-1-2.6-2.3-3.9-3.7
		C94.5,104.9,94.1,104.4,95.1,103.9z"/>
	<path class="st13" d="M1.7,113.5c-1.6-3-4.1-3.9-7.3-3.5c-1.1,0.1-2.7-0.1-3-1.3c-0.7-2.7-2.5-3.7-5-4.1c-0.2,0-0.3-0.1-0.5-0.3
		l-1.7-0.7c0,0.1,0,0.2,0,0.3c0.3,0.2,0.6,0.5,0.9,1c0.3,0.6,0.8,1.3,1.6,1.1c2.2-0.7,3,0.4,3.7,2.3c0.7,2.1,2.5,3,4.7,2.6
		c2-0.4,4.1,0.7,5,2.5c0.8,0.8,1.7,1.2,2.8,1.4C2.5,114.3,2,114,1.7,113.5z"/>
	<path class="st38" d="M86.8,106c0,0.4,0,0.7,0,1.1c-0.9,1.5-2.1,2.4-3.9,2.4c0-0.1,0-0.2,0-0.3c0,0,0,0,0,0c0.8-1.4,0-3.1-1.6-3.6
		c-4.2-1.3-7.9-3.4-11.2-6.4c-1.1-1-1.2-1.9-0.9-3c0.3-1,1.4-0.8,2.3-0.8c0.4,0,0.8,0,1.2,0c0.4,0,0.8,0,1.3,0
		c1.6-0.2,3.2-0.1,4.6,1c0.5,0.4,1.1,0.5,1.6-0.2c0.3-0.4,0.7-0.3,1.1-0.1c0.4,0.3,0.8,0.6,1.2,0.9c0.6,1.2,0.2,2.8,1.3,3.8
		c0.1,0.1,0.2,0.3,0.3,0.3C86.3,102,86.6,104,86.8,106z"/>
	<path class="st39" d="M121.3,102.2c0.7,0.5,2.5,0.7,0.5,1.9c-0.4,0.2-0.3,0.7,0,0.9c1.4,1,1.3,2.4,1.3,3.8
		c-2.3,0.1-3.8-1.9-5.9-2.2c-0.2,0.1-0.5,0.2-0.7,0c-0.4-2.1-0.3-2.1,1.9-1.9c-0.6-0.7-1.3-1.2-1.7-1.9c-0.3-0.6-0.3-1.1,0-1.7
		c0.4-0.6,0.9-0.2,1.5-0.2C119.3,101,120.1,102.2,121.3,102.2z"/>
	<path class="st7" d="M116.9,106.3c0.1,0.1,0.2,0.2,0.3,0.3c0.4,1,1.3,1.4,2.2,1.9c1.1,0.5,1.4,1.4,0.8,2.4
		c-0.2,0.4-0.5,0.8-0.4,1.1c0.6,2.3-0.7,1.7-1.8,1.2c-0.6-0.3-1.2-0.6-1.8-0.9c0.2,0,0.4,0,0.5-0.1c1.1-0.3,2.5-0.6,2.6-1.9
		c0.1-1.3-1.3-1.5-2.3-2c-0.9-0.5-2.5-0.7-1.2-2.3C116.4,105.3,116.5,106.1,116.9,106.3z"/>
	<path class="st40" d="M8.9,108.1c-1,0.1-2,0.7-3,0.1c-1.5-0.9-3.1-1.5-4.6-2.4c-2.4-1.5-4.5-3.5-7.4-4.1c-0.9-0.2-1.5-0.9-1.9-1.7
		c-0.4-0.7-0.8-1.4-1.6-1.5c-1.2-0.2-2.1-0.9-2.9-1.8c-0.5-0.6-1-1.1-1.8-1.2c-1.1-0.1-1.3-0.7-1.3-1.6c-0.2-0.7-0.7-1.3-0.9-2
		c-0.2-1.5,0.1-3.1-0.3-4.6l0.1,13.2c0.1,0.3,0.2,0.6,0.3,0.9c1.8,1.2,4,1.5,5.7,2.8c1,0.7,2.1,1.5,3.2,1.9c3.8,1.1,7,3.6,10.9,4.6
		l0,0c0.8,0.9,1.9,0.1,2.8,0.7c1.2,0.7,2.3,1.3,2.8-0.7c0,0,0.2,0,0.3,0c0.2,0,0.4-0.2,0.5-0.4C10.2,109.2,9.5,108.7,8.9,108.1z"/>
	<path class="st41" d="M9.6,110.5c0-0.1,0-0.2,0-0.4c0.5-1,1.3-0.9,2.2-0.7c0.7,0.1,1.4,0.4,2.1,0.2c1.4,0.6,2.1,1.7,2.6,3
		c0.4,0.5,0.7,0.9,1.1,1.4c-0.3,0.3-0.6,0.4-0.9,0.2c-1.8-1.2-3.8-0.7-5.7-0.3C10.5,112.9,10,111.7,9.6,110.5z"/>
	<path class="st42" d="M3.6,110.5c0.9,0.3,2,0.1,2.8,0.7c-0.8,0-1.6,0-2.4,0C3.9,111,3.8,110.8,3.6,110.5z"/>
	<path class="st43" d="M123,87.9c0,0.3,0.1,0.7,0.1,1c0,0-0.1,0-0.1,0c-0.8,1.5-2.2,1.3-3.5,1.2c-2.6-0.3-5.1-0.4-7.7-0.1
		c-0.6-0.5-1.1-0.9-2.1-0.7c-2.5,0.5-3.3-0.5-2.3-3.1c3.7,0.1,7.4-0.3,11.2-0.2c0.8,0.8,1.6,1.5,3,1.1
		C122.2,86.9,122.7,87.4,123,87.9z"/>
	<path class="st44" d="M107.5,86.4c0.4-1.1,1.4-0.9,2.2-1c4.5,0,8.9,0,13.4,0c0,0.2,0,0.4,0,0.7c-1,1.2-2.6,1.4-3.9,0.5
		c-0.1-0.1-0.2-0.1-0.3-0.2c-2.8-0.2-5.5,0.4-8.3,0.3c-1,0-2-0.2-2.9-0.3C107.5,86.6,107.5,86.5,107.5,86.4z"/>
	<path class="st45" d="M123,87.9c-1,0-2,0-3-0.1c-0.8-0.1-1.3-0.4-1.2-1.3c0,0,0,0,0,0c1.4-0.3,2.8-0.3,4.2,0
		C123.1,86.9,123.1,87.4,123,87.9z"/>
	<path class="st43" d="M123.1,86.4c-1.4,0-2.8,0-4.2,0c1.4-0.5,2.8-0.3,4.2-0.4C123.1,86.2,123.1,86.3,123.1,86.4z"/>
	<path class="st46" d="M112.3,88.9c3.6,0,7.2,0,10.8,0c0,0.1,0,0.2,0,0.4c-0.4,0.6-1,0.9-1.7,0.9c-3.1,0-5.1,1.6-6.2,4.5
		c-0.1,0.2-0.3,0.2-0.4,0.2c-0.7,0.1-1.3-0.4-1.9-0.5c-0.8-0.2-1.5,0.7-2.3,0.2c-2.6-0.2-5.1-1.2-7.8-0.9c-1,0.1-1.4-0.6-0.8-1.5
		c0.2-0.3,0.4-0.5,0.4-0.8c0.1-0.8,0.5-1.6,1.3-1.4c2.2,0.5,4.1-0.6,6.2-0.7C110.6,89.1,111.6,89.6,112.3,88.9z"/>
	<path class="st47" d="M114.7,94.1c-0.5-1.4-0.7-2.6,1.3-2.8c0.1,0,0.3-0.1,0.3-0.2c1.5-3.1,4.4-1.5,6.8-2c0,2.1,0,4.2,0,6.3
		c-0.5,0.6-1.1,0.7-1.9,0.5c-1.8-0.4-3.6-0.6-5.5-1C115.1,94.9,114.7,94.7,114.7,94.1z"/>
	<path class="st48" d="M116.9,106.3c-0.4-0.1-0.7-0.2-1.1-0.3c-1.2-0.9-2.3-1.9-3.5-2.8c-0.3-0.3-0.6-0.9-0.3-1
		c1.2-0.6,0.2-0.8-0.1-1.1c-0.4-0.4-0.9-0.9-0.6-1.5c0.4-0.7,1.1-1.1,1.9-0.8c1.1,0.5,2.2,0.5,3.4,0.5c0.7,0,1.2,0.4,1.8,0.5
		c1.2,0.2,2,0.9,2.4,2.1c0.2,0.2,0.4,0.3,0.6,0.5c-0.9,0.6-1.6-0.3-2.4-0.4c-0.4-0.1-1-0.3-1.3,0.2c-0.3,0.5,0.1,0.9,0.5,1.2
		c0.7,0.6,1.5,1,2.3,1.6c0.3,0.2,0.8,0.4,0.6,0.9c-0.2,0.4-0.7,0.3-1.1,0.3c-0.5,0-1-0.1-1.5-0.2
		C117.7,105.7,117.1,105.5,116.9,106.3z"/>
	<path class="st48" d="M114.7,94.1c2.7,0.8,5.5,1.2,8.4,1.4c0,1.3,0,2.5,0,3.8c-0.3,0.6-0.9,0.6-1.5,0.6c-1.3,0-2.5-0.1-3.7-0.4
		c-0.8-0.2-1.5-0.1-2.3,0c-0.6-0.4-1.6-0.1-1.7-1.2c0.2-1.3,1.3-1.1,2.2-1.3c1-0.2,2.1-0.1,3.3-0.3c0.1,0-0.2,0.3-0.1,0.1
		c0,0,0-0.1-0.2-0.1c-1.3,0-2.5-0.3-3.8-0.1c-2,0.3-3.1-0.9-4.4-2c-0.6-0.5-0.2-0.9,0.3-1.2c0.5-0.2,0.9-0.3,1.3,0.1
		C113.3,93.9,114,94,114.7,94.1z"/>
	<path class="st49" d="M115.8,99.3c2.4-1,4.8-0.4,7.2,0c0.1,1.6-1.8,1.4-2.3,2.5c-1.4-0.7-2.8-1.4-4.2-2.1
		C116.2,99.7,115.9,99.8,115.8,99.3z"/>
	<path class="st50" d="M16.5,112.7c-0.8-0.8-1.5-1.7-2.3-2.5c-1-0.3-1.7-0.8-2.3-1.7c-1.4-2-3.1-3.8-5.1-5.1
		c-0.5-0.3-1.1-0.6-0.7-1.4c0.6-0.7,0.9-1.6,1.8-2c1.8,0.5,3.4,1.2,4.5,2.9c0.5,0.8,0.8,1.4,0.8,2.4c0,1.1,0.5,2.2,0.9,3.2
		c0.9,1.3,1.9,2.5,2.8,3.8C16.8,112.4,16.7,112.5,16.5,112.7z"/>
	<path class="st51" d="M50.8,102.8c0.7,0.5,1.4,1,2.1,1.5c0.4,0.2,1,0.8,1.4,0.3c0.4-0.5-0.2-0.9-0.5-1.3c-0.9-1.3-0.5-2.4,1.1-2.7
		c0.5-0.1,1-0.3,1.4-0.4c0.5-0.2,0.7-0.5,0.3-0.9c-0.3-0.4-0.5-0.8-0.4-1.3c0.4-1.4-0.3-2.5-1-3.5c-1.1-1.5-1.5-3.3-2.8-4.7
		c-0.5-0.6-0.1-0.9,0.3-1.3c2.6,0,4.4,1.9,4,4.3c-0.1,0.7,0,1.2,0.4,1.8c0.6,0.5,1.2,0.6,2,0.5c1.4-0.2,2.1,0.7,2.5,1.8
		c-0.5,0.3-0.8,0-1-0.2c-0.6-0.4-1.2-0.8-1.8-0.1c-0.6,0.7-0.9,1.4-0.2,2.2c0.9,1.1,0.3,1.8-0.6,2.4c-2.4,1.5-2.5,1.9-0.3,3.8
		c0.9,1,1.4,2.1,1.6,3.4c0.2,1.4-0.4,1.9-1.7,1.3c-1-0.4-1.9-1-2.6-1.8C53.4,106.3,51.9,104.7,50.8,102.8z"/>
	<path class="st52" d="M57.1,94.5c-0.7-0.5-1.2-1.1-1.2-2c0.2-2.2-1.1-3.2-3-3.6c-0.4,0.2-0.7,0-0.8-0.4c0.4-0.8,0.7-1.7,1.9-1.7
		c0.9,0.2,1.6,0.9,2.4,1.2c0.3,0.6,0.5,1.1,1.5,0.8c1-0.4,2,0.3,2.9,0.7c0.8,0.4,1.4,0.9,2.3,1.1c1.2,0.2,0.7,1.3,0.5,2.1
		c-0.9,0.1-1.4,0.8-2,1.4c-0.9,0-1.8-0.2-2.7-0.5C58,93.1,57.3,93.4,57.1,94.5z"/>
	<path class="st53" d="M61.7,94.1c-0.9-1.7,0.6-1.4,1.4-1.7c1.2,0.3,1.5,1.7,2.6,2.2c2.5,2.5,5,5,7.7,7.2c0.6,0.5,1.1,0.8,0.9,1.7
		c-1.8,0.5-3.1-0.4-4.2-1.7c-0.7-0.8-1.5-1.6-2.4-2.2c-1.5-1.4-3.1-2.5-4.1-4.3C63.1,94.8,62.3,94.5,61.7,94.1z"/>
	<path class="st24" d="M74.2,103.6c-3.1-2.7-6.4-5.2-9.1-8.4c-0.6-1-0.5-1.4,0.8-1.7c2.7-0.6,4.9,0.4,7,1.9c0.2,0.1,0,0.3,0,0.5
		c-1,0.2-2.3-0.3-2.6,1.1c-0.3,1.3,0.7,1.9,1.6,2.7c2.4,2,5.4,2.7,7.8,4.5c0,0,0.1,0.1,0.2,0.1c2.1-0.1,3.5,0.9,4.8,2.6
		c0.9,1.2,0.5,1.3-0.3,1.8c-0.4,0.2-0.8,0.4-1.3,0.6c-0.4-1.6-1.3-2.6-3-2.9C77.8,105.8,76.1,104.4,74.2,103.6z"/>
	<path class="st42" d="M0.6,108.3c-2.1-0.2-3.5-1.5-5.1-2.5c-0.6-0.4-1.2-0.6-1.9-0.7c-1.8-0.2-3.3-1-4.6-2.2
		c-0.6-0.6-1.3-1.2-2.2-1.2c-1.4,0-2.5-0.6-3.4-1.6l0,0c0.2,0.4,0.3,0.8,0.4,1.2c0.1,0.3,0.1,0.6,0.2,0.8c0.6,0.3,1.1,0.7,1.7,1.1
		c0.5,0.4,1.1,0.8,1.8,0.9c1.8,0.3,3.1,1.2,4.2,2.7c1,1.3,2.2,2.7,4.4,1.7c0.8-0.4,1.7,0,2.3,0.6c1.5,1.5,3.3,1.7,5.3,1.3
		C2.9,109.5,1.8,108.4,0.6,108.3z"/>
	<path class="st54" d="M52.5,88.5c0.1,0.1,0.2,0.2,0.4,0.4c2.3,1.7,2.2,4.7,3.7,6.9c0.6,0.9-0.3,2.5,0.6,3.7c0.3,0.4-0.5,0.7-1,0.9
		c-2.9,1.2-2.9,1.5-1.1,3.8c0.3,0.4,0.8,0.7,0.5,1.2c-0.4,0.6-1,0.2-1.4-0.1c-0.5-0.3-0.9-0.7-1.3-1.1c0.9-0.3,0.5-1,0.3-1.6
		c-0.4-1.1-0.2-2,1.1-2.5c1.9-0.7,2.3-1.8,1.3-3.6c-0.2-0.4-0.4-0.7-0.7-1c-1.8-1.4-3.3-3.3-5.9-2.7c-2.2-1.6-4.7-1.8-7.2-2
		c-1.4-0.1-2.5,1.2-4,0.9c-0.3-0.1-0.4-0.4-0.6-0.6c-0.5-0.7-0.8-1.5-1-2.4c0-0.4,0.3-0.5,0.5-0.7c0.2-0.1,0.4-0.1,0.6-0.2
		c1.4-0.4,2.5-1.6,4-1.5c2.7-0.1,5.4-0.2,7.9-0.6c-0.7-0.2-1.8,0.8-2.6-0.5c0-0.2,0-0.4,0-0.6c0.4-0.6,1-0.6,1.5-0.5
		c2.4,0.4,4.8,0.4,7.3,0.1c0.3,0,0.6,0,0.8,0.1c1.6,1.2,3.4,0.5,5.1,0.6c1,0.2,1.9-0.3,2.8-0.6c0.8,0.1,1.6,0.2,2.1,1
		c0.1,0.3,0.4,0.4,0.4,0.8c-0.1,0.3-0.2,0.8-0.4,0.9c-1.1,0.4-1.1,1.1-0.9,2c0.1,0.5,0.2,1-0.4,1.4c-1,0.7-2.1,0.4-3.1-0.1
		c-2-1-4.2-1.4-6.5-1.5c-0.6-0.2-1.1-0.6-1.4-1C53.6,87.9,52.5,86.7,52.5,88.5z"/>
	<path class="st55" d="M38.2,91c4-2.3,7.6-0.9,11.2,1c1,0.5,1.8,1.3,2.6,2c0.5,0.4,0.7,0.9,0.1,1.4c-0.4,0-0.9,0-1.3,0.1
		c-1.7-0.6-3.4-1.3-5.3-1.5c-1.7-0.2-2.1,0.3-1.7,1.9c0.2,0.9-0.2,1.6-0.4,2.4c-0.5,0.6-0.9,1.2-1.8,1c0.2-0.6,0.2-1.2-0.5-1.5
		c-0.6-0.3-0.9,0.3-1.3,0.6c-0.4,0.3-0.6,0.9-1.3,0.7c0.2-1.3,1.7-1.6,2-2.6c-0.1-1.4-0.9-2.3-1.9-3.3C38.2,92.7,37.2,92.1,38.2,91z
		"/>
	<path class="st56" d="M43.5,98.3c-0.4-1.2-0.8-2.3-1.1-3.5c-0.3-1.5,0.4-2.2,1.9-1.9c2.3,0.5,4.9,0.3,6.5,2.6
		c-1.5,0.4-3,0.7-4.5,1.1C45.2,96.9,44.5,97.9,43.5,98.3z"/>
	<path class="st51" d="M52.1,95.5c-1-1.1-2.4-1.9-2.7-3.4c2.6-0.9,4.4,0.6,5.6,3.5C54,95.5,53.1,95.5,52.1,95.5z"/>
	<path class="st57" d="M38.2,91c0.4,0.6,0.7,1.2,1.2,1.6c1.4,1.1,1.5,2.4,1.2,4c-0.8-1.3-1.8-2.2-3.4-2.2c-1.1-0.2-2.2-0.4-2.8-1.5
		c-0.6-1.3,0.3-2,1.2-2.6c0.7-0.4,1.6-0.8,2.2,0.3C38,90.8,38.1,90.9,38.2,91z"/>
	<path class="st58" d="M34.7,93.1c0.8,0.5,1.7,0.9,2.5,1.4c-2.4-0.3-4.8-0.1-7.3,0.1c-0.5,0.1-1.2,0.4-1.5,0
		c-0.4-0.6,0.4-0.9,0.7-1.4c1.7-0.9,3.4,0.4,5.2,0.1C34.4,93,34.5,92.9,34.7,93.1z"/>
	<path class="st59" d="M24.3,94.4c0.3-2.1,1.5-2.6,3.4-1.4C26.7,93.8,25.6,94.4,24.3,94.4z"/>
	<path class="st60" d="M16.9,92.3c-0.7,0.7-1.4,1.4-2.1,2.1c-1.1,0.5-1.6,1.7-2.8,2.1c-0.8-0.1-1,0.7-1.4,1.1
		c-1.9,2.1-3.5,1.8-4.6-0.7c-0.2-0.4-0.3-0.9-0.6-1.3c-0.2-0.3-0.7-0.8-0.3-1c1.4-1.2,0.3-2-0.3-2.9c-0.1-0.6-1.1-0.9-0.4-1.7
		c0.6-0.6,1.2-0.2,1.8,0c0.2,0.1,0.5,0.1,0.7,0.2c2,0.2,3.9,0.4,5.6,1.6c1.3,0.1,2.5-0.4,3.7-0.3C16.8,91.6,17.2,91.7,16.9,92.3z"/>
	<path class="st61" d="M5.7,95.2c0.7,0.3,1,0.9,1.2,1.6c0.7,1.6,1.6,1.9,3.1,0.8c0.6-0.4,1-1.1,1.9-1c-0.4,0.5-0.9,1-1.3,1.5
		c-0.6,0.8-0.5,2.4-2.2,2.2c-1-0.2-1.5,0.9-2.6,0.8c-3.3-0.4-5-2.2-6.2-4.9c-0.1-0.3,0-0.6,0.1-0.8C1.8,94.7,3.7,93.8,5.7,95.2z"/>
	<path class="st4" d="M8.6,99.7c0.7-0.6,1.4-1.1,2.1-1.7c3.3,2,3.5,5.2,3.4,8.5c0,0.2,0,0.3,0,0.5c0,0.5,0,0.9,0,1.4
		c-1.2-1-1.5-2.5-2-3.9c-0.7-1.9-2.4-3-4-4.1C7.9,99.9,8.4,99.9,8.6,99.7z"/>
	<path class="st62" d="M16.9,92.3c-1.5-0.4-2.9,0.9-4.5,0.4c-0.7-1.1-1.5-2.1-2.3-3.2c-0.1-0.1-0.2-0.3-0.3-0.4
		c-0.2-1.7-0.1-3.4-1.2-5c-0.4-0.5,0.3-1.5,1-2c1-0.5,1.8,0.1,2.5,0.6c1.8,1.2,3.5,2.7,5.4,3.9c0.5,0.3,1,0.9,0.7,1.5
		c-0.3,0.6-0.8,1.2-1.7,0.7c0.9,1,2.2-0.4,3.1,0.5c-0.1,0.7-0.8,1.1-1.1,1.7C18,91.4,17.5,91.9,16.9,92.3z"/>
	<path class="st24" d="M96.5,99.4c-0.7-0.5-1.4-1-2.1-1.4c-1.7,0.3-2.9-0.5-3.9-1.7c0-1.2-0.7-1.6-1.9-1.7c-1.3,0-1.9-0.9-1.9-2.7
		c0-1.1,0.5-1.6,1.7-1.5c1.4,0.1,2.1-0.3,1.9-2c-0.1-1.4,0.4-1.6,1.9-1.1c0.3,0.5,1,0.6,1.2,1.2c0.2,1.6,2.4,3.9,3.9,4
		c0.9,0,1.3,0.6,1.7,1.2c0.1,0.2,0.1,0.5,0.1,0.7c-0.1,0.8-0.1,0.8-1.8,0.9c0.7,1.6,2.9,1.8,3.4,3.6C99.4,99,97.9,99.1,96.5,99.4z"
		/>
	<path class="st63" d="M99.3,94.5c-0.2,0-0.4-0.1-0.7-0.1c-0.8-0.5-1.5-1.2-2.2-1.9C96,92,96,91.5,96.2,91c0.3-0.6,0.8-0.4,1.3-0.2
		c0,0.1,0-0.1-0.1-0.1c-1.6-0.2-3.4-0.3-4.5-1.8c-0.4-0.3-0.8-0.5-0.9-1.1c0.1-1.1,0.8-1.4,1.8-1.2c1.1,1.2,2.6,1.2,4,1.5
		c1.9,0.3,3.7,1.1,4.8,2.9c-0.7,1.1-1,2.3-1.7,3.4c-0.4,0.1-0.8-0.4-1.3,0C99.6,94.5,99.4,94.5,99.3,94.5z"/>
	<path class="st64" d="M99.7,94.4c0.4-0.1,0.7-0.3,1.1-0.4c1.8-1,3.7-0.6,5.5-0.1c2,0.5,3.8,1.7,5.7,2.7c0.2,0.1,0.5,0.5,0.4,0.9
		c0.1,1.3-0.7,1.4-1.6,1.2c-1.6-0.3-3.2-0.7-4.8-1.1c-0.4-0.1-0.7-0.1-1,0c-0.1,0-0.3,0-0.4,0C102.9,96.6,101.3,95.5,99.7,94.4z"/>
	<path class="st24" d="M98.3,100.8c-0.2-0.1-0.4-0.3-0.6-0.4c0.7-0.5,1.3-0.8,2.1-0.3C99.4,100.9,98.8,100.7,98.3,100.8z"/>
	<path class="st65" d="M91.3,95.9c1.1,0.7,2.1,1.4,3.2,2.1c0,0.1,0,0.2,0.1,0.3c0.1,0.7,1.3,1.1,0.6,1.7c-0.6,0.6-1.4-0.2-2-0.6
		c-0.9-0.4-1.9-2.1-2.6-1.2c-0.7,0.8,1,1.7,1.6,2.5c0.9,1.1,2,2.1,3,3.1c1.8,2.5,3.9,4.6,6.4,7c-1.7-0.3-2.6-1.3-3.8-1.8
		c-0.9-0.4-1.7-0.9-2.6-0.5c-1.3,0.5-2.1,0-2.8-1c-0.2-0.2-0.4-0.4-0.6-0.7c-0.5-0.8-1.9-0.7-2-1.7c-0.1-1.1,1.2-1.2,1.8-1.9
		c0.5-0.7,0.4-1.3-0.2-1.9c-0.5-0.5-1.2-0.9-1.8-1.4c-1.4-0.7-0.8-1.9-0.8-2.9c0.2-0.3,0.5-0.6,0.7-0.9
		C89.9,95.1,90.5,95.1,91.3,95.9z"/>
	<path class="st66" d="M105,97.6c1-1,2.1-0.6,3.3-0.5c1.2,0.1,2.4,0.9,3.7,0.4c1.2-1,1.7-0.8,2.4,0.8c0.5,0.3,1,0.6,1.5,1
		c0.2,0.1,0.5,0.2,0.7,0.4c-0.8,0.3-1.6,0.1-2.4,0c-0.5-0.1-1.3-0.4-1.5,0.3c-0.2,0.6,0.5,0.8,0.9,1.1c0.5,0.4,1.1,0.6,1.4,1.4
		c-0.7,0.5-1.9-0.2-2.5,0.7c-1.5-0.7-2.7-1.8-3.9-2.9C107.4,99.2,106.2,98.4,105,97.6z"/>
	<path class="st24" d="M89.2,97.3c0.1,0.9,0.2,1.9,0.3,2.8c-1.3,1.8-1.6,4.1-2.8,5.9c-0.2-0.1-0.5-0.2-0.5-0.4
		c-0.8-3.1-4-4.8-4.7-7.9c0.1-0.7,0.3-0.9,1-0.6c0.6,0.2,1.2,0.5,1.5,1.1c0.8,1.4,1.3,1.2,2.3,0.1C86.9,97.4,88,96.8,89.2,97.3z"/>
	<path class="st67" d="M89.2,97.3c-0.6,0.4-1.2,0.8-1.8,1.1c-0.4,0.2-0.8,0.4-0.6,0.9c0.3,0.7,0.7,1.3-0.5,1.5c-1,0.2-2,0.3-2.5-0.9
		c-0.5-1.1-1.1-2.1-2.4-2.3c-0.2-0.2-0.4-0.4-0.7-0.7c-1.6-0.2-2.8-1-3.9-2.1c-0.5-0.5-0.9-1.1-0.7-1.9c0.1-0.3,0.4-0.6,0.6-0.5
		c1.8,0.6,3.8-0.2,5.4,1.2c0.9,0.8,2.1,1.2,3.2,1.8c0.4,0.2,1,0.4,1.2-0.1c0.3-0.5-0.2-0.8-0.6-1.1c-0.8-0.6-1.9-0.9-2.8-1.4
		c-1.5-0.9-3-1.7-4.6-2.3c-1.5-0.6-3.2-1.3-4.8-0.2c-1.4-0.6-2.8-0.6-4.3-0.5c-2.1,0.1-3.1-1.4-2.3-3.1c0.2-0.2,0.5-0.3,0.8-0.2
		c2.6,0.2,5.1-0.3,7.5-1.3c1.1-0.5,2.1-1.2,3.3-1.4c0.2,0,0.4-0.1,0.5-0.1c1.7-0.1,2.2,1.1,2.7,2.4c0.1,0.9-0.5,1-1.1,0.8
		c-1.1-0.2-2.2,0-3.1,0.6c1.8,0.9,3.9,0.9,5.6,2.3c1.4,1.1,2,0.7,2.1-1.1c0-0.3,0-0.6,0.2-0.8c0.6-0.5,1.2-0.3,1.9-0.1
		c1.3,0.3,1.7-0.1,1.6-1.4c0-0.6,0.1-1,0.6-1.3c0.7-0.4,1.2,0,1.7,0.4c0.6,1.5,1.5,0.2,2.3,0.3c0.5,0.5,1.4,0.3,1.7,1.1
		c0,0.2-0.1,0.4-0.2,0.6c-0.6,0.3-1.1-0.1-1.6-0.3c-0.7-0.1-1.1,0.4-1.7,0.7c-0.9,0-0.9,0.6-0.7,1.2c0.2,0.7,0.2,1.5,0.1,2.2
		c-0.3,1-0.6,1.8-1.7,0.6c-0.4-0.5-0.9-1-1.6-0.6c-0.5,0.3-0.4,0.8-0.4,1.2c0.1,0.8,0.4,1.3,1.2,1.5c0.7,0.1,1.5,0.3,2.1,0.8
		c0.4,0.3,0.5,0.6,0.3,1.1C90.3,95.9,89.8,96.7,89.2,97.3z"/>
	<path class="st24" d="M76.7,93.1c0.8,1.9,2.9,2.4,4.2,3.9c-0.4,1.2-0.9,1.6-2,0.6c-1.3-1-2.8-1.9-4.6-1.8c-0.3-0.4-0.9-0.4-0.8-1
		c0-0.2-0.1-0.5,0.1-0.7c1.3-1.4,1.1-1.8-0.8-2.3c-1.8-0.5-3.7-0.7-5.5-0.9c-0.1-0.4-0.2,0-0.1-0.2c0.1-0.1,0.1-0.1,0.1,0
		c0.2,0.7,0.2,1.5,0.3,2.2c0.1,0.8-0.3,1.2-1.1,1c-0.2-0.1-0.3-0.1-0.5-0.2c-0.7-0.3-1.7,0-1.9-0.9c-0.2-0.9,0.1-1.9,0.8-2.6
		c0.1-0.1,0.2-0.2,0.4-0.4c-0.1-1.2-0.6-2.3-1.7-3.2c1-0.6,1.9-0.1,2.8-0.3c1-0.7,1.5-0.5,1.4,0.8c0.5,1.9,1.2,2.3,3.1,1.7
		c1.3-0.4,2.6-0.7,3.5,0.7c1.8-0.7,1.8,1.1,2.5,1.8C77.2,91.9,77.7,92.6,76.7,93.1z"/>
	<path class="st51" d="M65.1,89.9c-0.6,3-0.6,3,1.7,3.9c0.5-0.3,1-0.5,1.6-0.4c1.4,0.2,2.9,0.5,4.3,0.6c0.5,0,1.1,0,1.1,0.8
		c0.1,0.3,0.2,0.7,0.3,1c-0.5,0-0.9,0-1.4,0c-1.9-0.5-3.8-0.9-5.7-1.3c-0.8-0.2-1.6-0.4-2,0.7c-1-0.7-2-1.4-2.1-2.8
		c-0.4-1.4-2.9-2.9-5-3c-0.8,0-1.6,0-2.3-0.6c1.8-0.6,3.4,0.1,5.1,0.5C62.2,89.8,63.6,90.2,65.1,89.9z"/>
	<path class="st68" d="M-2.4,93.1c0.3-0.4,0.1-0.9,0-1.3C-2.8,90-3.1,89.9-4.4,91c-0.6,0.5-1.1,1-1.9,1.3c-0.6,0.2-1.3,0.3-1.4-0.5
		c-0.4-2.1-2.2-2.6-3.6-3.5c-1.5-1-1.6-1.1-0.9-2.7c0.4-0.8,0.9-1.6,0.2-2.4c-0.9-1.1-0.8-2.2-0.3-3.4c0.6-1.2,0.3-2-1.1-2.3
		c0,0-0.1,0-0.1,0.1c-0.3,0.2-0.6,0.5-1,0.6c-0.1,0-0.2,0.1-0.3,0.1c-0.2,0.3-0.4,0.6-0.6,0.9c-0.1,0.9-0.4,1.7-0.9,2.5
		c-0.5,2.1-0.8,4.1-1.2,6.2c0,1.5-0.3,3.1,0.4,4.6c1.1,0,2,0.6,2.9,1.1c3,1.6,5.7,4,9.3,4.2c0.9,0.1,1.8,0.1,2.5-0.5
		c0.7-0.6,0.5-1.4,0.1-2.2C-2.5,94.4-2.5,93.8-2.4,93.1z"/>
	<path class="st69" d="M8.5,108.8c-0.8,1-1.6,1-2.7,0.2c-2.2-1.5-4.8-2.2-7-3.8c-1.8-1.3-3.9-2-5.8-3c-2-1-3.6-2.8-5.5-4.3
		c-0.9-0.7-1.5-1.8-2.7-2.3c-0.7-0.3-1.4-0.7-1.1-1.7c0.4-0.5,0.9-0.5,1.4-0.3c1.5,0.5,3.2,1,4.5,1.9c2.2,1.4,4.5,1.7,7,2
		c1.2,0.1,2.2,0.5,3.3,1c0.3,0.1,0.5,0.4,0.5,0.8c0.3,3.6,3,6.5,6.6,7.1c1,0.2,1.7,0.6,2,1.6C9.2,108.6,8.9,108.8,8.5,108.8z"/>
	<path class="st0" d="M8.5,108.8c-0.3-0.6-0.7-1.2-1.5-1.3c-2.2-0.1-3.6-1.5-5-2.8c-0.1-0.1-0.2-0.3-0.3-0.4c-1.8-1.2-2.7-2.8-2.1-5
		c0.5-1.3,1.2-0.5,1.9-0.3c1.5,0.5,2.8,1.7,4.5,1.7c0.6,0,0.9,0.7,0.9,1.3c3.1,2.1,5.3,5,7.4,8c-1.5,0.5-3.1,0-4.6,0
		C9.2,109.7,8.9,109.3,8.5,108.8z"/>
	<path class="st70" d="M6.8,102.1c-2.3-1.3-4.7-2.3-7.3-2.7C-2,98.7-3.5,98.3-5,98c-3.9-0.8-7.6-2.2-11.2-3.9
		c-0.4-0.5-0.9-1-0.8-1.7c0.5-1.2,1.4-0.9,2.2-0.4c1.6,1,3.3,1.9,4.8,3.1c1.6,1.3,3.4,1.8,5.3,1.9c1.6,0.1,2.1-0.6,1.6-2.2
		c-0.2-0.7-0.6-1.4,0.1-2.1c0.5,0,0.6,0.4,0.8,0.8c0,0.7,0.6,0.8,1.1,1.1c0.5,0.2,1.2,0.2,1.2,1c0.5,0.5,1,0.9,1.4,1.5
		c2,3.3,3.5,3.9,7.1,2.7c-0.1,0.2-0.3,0.4-0.4,0.7C7.7,101,7.2,101.6,6.8,102.1z"/>
	<path class="st71" d="M21.7,82c-1.2-0.4-2.2-0.9-3.4-1.1c-0.5-0.1-1-0.1-1.2,0.6c-0.1,0.2-0.1,0.4-0.1,0.5c-0.2-0.3-0.3-0.6-0.3-1
		c0-0.2-0.3-0.4-0.5-0.4c-1.9-0.6-3.2-1.9-3.7-3.8c-0.8-0.5-1.3-1.2-1.9-1.9c-0.9-1-2.4-0.6-3,0.6c-0.2,0.4-0.3,0.8-0.5,1.1
		c-0.2,0.2,0.1,0.4-0.1,0.6c0,0,0-0.1,0-0.1c0.1-1.1-1.3-1.3-1.4-2.3c-0.3-0.3-0.3-0.8-0.5-1.1c-1.3-0.8-2.8-1.1-4.2-1.8
		c-1.5-0.2-3,0.2-4.5,0.3C-3.7,72-3.8,72-3.8,72c-0.3,0.2-0.6,0.4-0.9,0.5c-0.9,0.4-1.9,0.8-2.9,1.2C-7.8,73.8-8,74-8.2,74.1
		c0.4,0.8,1,1.3,1.9,1.3c1.8-0.1,3.2,0.8,4.6,1.7c0.9,0.6,1.7,0.9,2.8,0.6c0.9-0.2,1.7,0.1,2,0.9c1,2.3,3.2,3,5.2,4.1
		c0.5,0.3,1.1,0.4,1.6,0c2.3,0.8,3.9,2.6,5.9,3.9c0.4,0.3,1.3,0.5,1.1,1.1c-0.3,0.8-1.1,0-1.7,0.1c-0.1,0-0.2,0.1-0.3,0.3
		c0.1,0.2,0.2,0.4,0.3,0.6c1.2,1.3,2.7,1.4,4.4,0.6c-0.1-0.3-0.2-0.6,0.1-1c1.3-1.4,2-3.1,2.4-4.9C22.5,82.8,22.3,82.1,21.7,82z"/>
	<path class="st71" d="M17.8,83c0.4,0.2,0.7,0.5,0.9,0.9c0,0,0,0.1,0,0.1C18.5,83.6,18.1,83.3,17.8,83z"/>
	<path class="st72" d="M11.7,77.3c0,0-0.1-0.1-0.1-0.1c-0.8-0.7-1.3-2.2-2.6-1.8c-1.2,0.3-0.6,1.8-1,2.7c-0.4-0.1-1,0.2-0.9-0.6
		c0.1-1.6-1.1-1.9-2.2-2.2c0-0.5,0-0.9,0-1.4c0-0.1,0-0.2,0-0.3c1.4-0.5,2.8,0.5,4.1,0c0.2-0.1,0.5-0.2,0.7-0.3
		c0.4-0.2,0.9-0.3,1.3-0.5c1.5,0,2.6,0.8,2.6,2.1c0,0.6,0.1,1.2,0.5,1.6c0.7,0.7,0.6,1.4,0.1,2c-0.6,0.7-1.1-0.1-1.6-0.4
		C12.3,78,11.8,77.8,11.7,77.3z"/>
	<path class="st73" d="M4.7,73.9c-0.7,0.5-1.3,0.3-1.8-0.3c-0.7-0.6-1.4-1.2-2-1.8c1.3,0,2.6,0.3,4,0.1c1.1-0.2,1.5,0.9,2,1.6
		C6.2,74.2,5.3,73.4,4.7,73.9L4.7,73.9z"/>
	<path class="st71" d="M4.7,73.9c0.7-0.1,1.4-0.3,2.1-0.4c0.7,0,1.4,0,2.1,0.1C7.5,74,6.1,74.2,4.7,73.9z"/>
	<path class="st74" d="M96.9,87.2c2.4,0.2,4.6,1.2,7,1c0.3-0.1,0.7-0.3,1,0c0,0,0,0.1,0,0.1c1.7,0.6,1.6-1.4,2.5-1.9
		c0.1,0,0.2,0.1,0.2,0.1c-0.1,1.7,0.7,2.4,2.4,2.2c0.7-0.1,1.5,0.1,2.2,0.1c-2.7,0.6-5,2.5-8,2c-0.6-0.1-1,0.1-1.4,0.4
		c-0.1,0.1-0.2,0.1-0.3,0c-2.2-1.2-4.4-2.6-7-2.9c-0.8-0.1-1.4-0.6-1.8-1.3c0.5,0,1-0.1,1.5-0.1C95.8,86.5,96.4,86,96.9,87.2z"/>
	<path class="st75" d="M102.5,91.3c0.1,0,0.2,0,0.3,0c0.6,0.5,0,0.9-0.1,1.4c2.7,0.2,5.4,0.5,8.1,0.7c0.2,0.1,0.3,0.2,0.4,0.3
		c1.8,1.8,4,2.3,6.5,2.2c1.5-0.1,2.8,0.7,4.1,1.4c-2.5,0.5-5.1,0.4-7.5,1c-0.8-0.3-1.6-0.6-2.4-0.8c-1-0.5-2-1-3.1-1.6
		c-2.5-1.4-5.2-2.2-8.1-1.9C100.7,92.7,100.5,91.3,102.5,91.3z"/>
	<path class="st47" d="M111.2,93.8c-0.1-0.1-0.2-0.2-0.4-0.3c0.7-0.5,1.4-0.8,1.8,0.3C112.2,93.8,111.7,93.8,111.2,93.8z"/>
	<path class="st51" d="M52.5,88.5c-0.2-0.3-0.5-0.6-0.2-0.9c0.7-0.5,1.3-0.1,1.9,0.2C53.6,87.9,53,88.1,52.5,88.5z"/>
	<path class="st76" d="M33.1,67.5"/>
	<path class="st76" d="M30.9,67.2"/>
	<path class="st77" d="M66.2,85.7c0.5-0.4,0.9-0.9,1.4-1.3c0.2-0.3,0.3-0.7,0.8-0.7c2.6,1.4,5.1,0.7,7.6-0.4c1.3-0.6,2.6-1.3,3.9,0
		c0,0.6-0.4,0.8-0.8,1.1c-0.1,0-0.2,0-0.3,0c-1.1,0.7-2.3,1.3-3.4,2.1c-0.3,0.2-0.7,0.5-1.1,0.5c-1.7-0.2-3.3,0.5-4.8,1.1
		c-0.7,0.3-1.2,0.2-1.6-0.5c-0.1-0.1-0.3-0.2-0.4-0.3c-0.5-0.3-0.9-0.5-1.4-0.8C66.2,86.1,66.2,85.9,66.2,85.7z"/>
	<path class="st78" d="M47,85.4c0.1,0,0.2,0,0.3,0c1.8,0.2,3.5-0.2,5.3,0.4c-3.6,0.9-7.3,0.9-10.9,1.4c-0.9-0.1-1.9-0.2-2.1-1.4
		c1.1-0.5,2.3-0.1,3.4-0.2C44.4,85.5,45.7,85.7,47,85.4z"/>
	<path class="st79" d="M36.5,88.9c0.1,0,0.2,0,0.3,0c0.4,0.5,0.9,1.1,1,1.8c-1.9-0.3-2.8,0.6-3.1,2.4c-0.1,0-0.3,0.1-0.4,0.1
		c-0.8-0.2-1-0.8-1-1.5c-0.2-1.4,0.9-1.3,1.7-1.4C35.7,90,36,89.4,36.5,88.9z"/>
	<path class="st80" d="M55.8,85.6c1.2-1.4,2.8-1.3,4.4-1.3c0.2,0.1,0.5,0.2,0.7,0.3c0.5,0.1,1.5-0.2,1,1
		C59.9,85.9,57.8,85.6,55.8,85.6z"/>
	<path class="st81" d="M61.9,85.6c-0.3-0.3-0.7-0.6-1-1c0.6-0.7,1.4-0.4,2.1-0.4c0.5,0.4,1,0.7,1.5,1.1
		C63.7,85.9,62.8,85.7,61.9,85.6z"/>
	<path class="st82" d="M11.7,77.3c0.6,0,1.4,0.8,1.7,0c0.3-0.9,0.1-2-0.2-2.8c-0.3-0.8-0.7,0.5-1.2,0.3c-0.3-0.7,0.1-1.7-0.9-2.1
		c1.5-0.6,2.4,0.1,2.7,1.5c0.2,1.1,0.8,1.6,1.7,2c1,0.4,1.3,1.1,0.6,2.1l-0.1,0.1l0.1-0.1c1.9,0.5,3.4,1.9,5.4,2.3
		c0.9,0.8,1.7,1.5,0.9,2.8c-1.2-0.9-2.7-0.8-4.2-1.8c0.3,1.6,1.3,2.3,1.9,3.2c0.2,0.4,0.5,0.8,0.1,1.1c-0.5,0.3-0.7-0.2-0.9-0.6
		c-0.7-1.7-2.3-3.2-3.6-3.8c-2-0.9-2.7-2.5-3.8-4C11.7,77.5,11.7,77.4,11.7,77.3z"/>
	<path class="st83" d="M11.3,89.6c-0.4-0.4-1-1.1-0.6-1.5c1.7-1.3,0.2-2.2-0.4-3c-0.7-0.9-0.8-1.6-0.5-2.5c-0.3-0.2-0.7-0.5-1-0.7
		c-2.1-1.1-4.3-2.1-5.2-4.6c-0.3-0.7-1.1-1.4-1.8-1.1c-2.2,1-3.6-0.5-5.1-1.6c-0.5-0.4-1.1-0.7-1.8-0.5c-1,0.3-1.8,0-2.5-0.5
		c-1.2,0.6-2.2,1.3-3.3,2c-0.1,0.1-0.1,0.2-0.2,0.3c-1.1,1.4-1,1.7,0.4,2.7c0.7,0.5,1.1,1.1,1.3,1.8c0.3,0.9,0.6,1.8,1.3,2.6
		c0.5,0.6,0.7,1.4,0.7,2.1c0,1.9,1,3,2.5,4.1c1.4,1,2.5,0.2,3.7,0c0.9-0.2,1.7-0.8,2.5-1.2c0.8-0.5,0.9-1,0.5-1.4
		c1.4,0.9,3.1,1.1,4.7,1.2c-0.8,1-1.8,1-2.8,1.1c-2.3,0.3-2.4,0.5-1.5,2.7C3,92.4,4,91.8,4.8,92.3c0.6-0.1,0.9-0.4,0.6-1
		c-0.3-0.7-0.1-1,0.5-0.6c2,1.3,4.5,0.6,6.5,2C12.6,91.5,12.3,90.5,11.3,89.6z"/>
	<path class="st83" d="M1,86.2C1,86.3,1.1,86.3,1,86.2c0.1,0,0.2,0.1,0.3,0.1C1.2,86.3,1.1,86.3,1,86.2z"/>
	<path class="st84" d="M4.8,91.7c0.2-0.1,0.4-0.2,0.6-0.4c1,0.2,1.9,0.6,2.1,1.7c0.1,1.2-0.9,1.6-1.7,2.1c-1.8,0.6-3.7,0.6-5.6,0.4
		c-1.1-0.3-2.3-0.5-2.8-1.8c-0.2-0.5-0.3-1.1,0.2-1.4c0.5-0.2,0.7,0.5,1,0.7c0.5,0.3,0.8,0.8,1.3,1.1c0.2,0.1,0-0.3,0-0.1
		c0,0.1-0.1,0.1-0.1,0c-0.1,0-0.1-0.1-0.2-0.2c-0.6-0.6-1.9-1.1-1.6-2.1c0.3-1.2,1.7-0.6,2.6-0.7C1.8,92.1,3.3,92.2,4.8,91.7z"/>
	<path class="st85" d="M93,88.9c2.6,0.3,4.8,1.4,6.9,3.1c-0.4,0.1-0.5,0.2-0.6,0.2c-0.7-0.1-1.5-1.3-1.9-0.6
		c-0.6,1.1,0.8,1.8,1.3,2.7c-2.1-0.9-3.9-2.3-5.8-3.7C92.1,90.1,92.2,89.5,93,88.9z"/>
	<path class="st86" d="M79.1,84.3c0.1-0.3,0.2-0.7,0.3-1c-0.9-1.4-2.2-1.8-3.8-1.9c-0.7,0-1.4,0-2.1-0.2c-1.1-0.3-1.9-0.8-1.6-2
		c0.2-0.9-0.5-0.9-1-1.2c-0.5-1.2,0.3-2.2,0.7-3.3c0.3-1.1,0.9-2,1.2-3.1c0.7-1,1.5-2,1.8-3.2c0.5-0.3,1.2,0,1.7-0.2
		c1.4,0.9,2.6,2,2.9,3.9c0.2,1.3,1.1,2.3,1.9,3.2c0.7,0.7,1.3,1.5,1.7,2.4c1,2,2.8,2.9,4.8,3.3c0.3,0.1,0.9,0.1,1,0.3
		c0.8,2.1,2.9,2,4.6,2.6c0.2,0.1,0.4,0.2,0.5,0.4c0,0.5,0.1,1-0.2,1.5c-0.8,0.9-1.8,0.7-2.8,0.3c-0.5-0.3-0.9-0.2-1,0.4
		c-0.1,0.4-0.1,0.9-0.3,1.3c-0.6,1.6-1.4,1.8-2.7,0.8c-0.3-0.2-0.6-0.3-0.9-0.5c-0.2,0.4-0.5,0.9-1,0.7c-1.4-0.6-2.9-1.2-3.5-2.8
		C81,85.1,80.5,84.1,79.1,84.3z"/>
	<path class="st87" d="M76.7,93.1c-0.7-1.2-1.4-2.5-2.5-3.5c0.5-1,1.3-0.9,2.2-0.7c2.2,0.4,4.1,1.5,6.1,2.5c2,1,4.1,1.8,5.8,3.3
		c0.3,0.3,0.9,0.4,0.8,1c-0.1,0.5-0.6,0.8-0.9,0.6c-1.2-0.5-1.9,1.9-3.4,0.5c-1.7-1.5-3.4-3.2-6-2.9C78.1,94,77.4,93.4,76.7,93.1z"
		/>
	<path class="st24" d="M81.5,86.1c1.7,0.3,2.8,1.9,4.5,2.1c0.5,0.7,1.2,1.3,0.8,2.2c-0.4,0.9-1.2,2.1-2.2,1.3
		c-2.5-1.9-5.4-2.5-8.1-3.8c-0.1-0.1-0.2-0.2-0.4-0.4C77.9,86.3,79.4,84.9,81.5,86.1z"/>
	<path class="st86" d="M67.9,87.5c2.7,0.1,5.3-0.5,7.7-1.6c1-0.5,2-1.2,3.1-1.5c-1.7,1.5-3.4,2.7-5.8,2.9c-1,0.1-2,0.6-3,0.9
		C69.1,88.4,68.4,88.4,67.9,87.5z"/>
	<path class="st77" d="M93.1,85.7c0.1,0.2,0.2,0.5,0.4,0.7c-0.9,0.4-1.8,0.7-2.4-0.4C91.7,86,92.4,85.9,93.1,85.7z"/>
	<path class="st88" d="M73.8,94.8c-2.4,0-4.8-0.1-7-1c-0.3-1.2-0.3-2.4-1-3.5c-0.2-0.4-0.2-0.8,0.2-1.1c0.4-0.3,0.7,0,0.9,0.2
		c0.6,0.8,1.5,0.8,2.4,0.9c1.7,0.2,3.5,0.4,5.1,1.1c0.9,0.4,1.8,1,1.7,2.2C75.9,94.8,74.8,94.7,73.8,94.8z"/>
	<path class="st89" d="M-0.1,93.3c-0.4-0.3-1.1-0.6-0.9-1.1c0.2-0.7,1-0.3,1.5-0.5C1.3,90.9,0,90.6,0,90c-0.6-0.1-0.2-0.8-0.6-1
		c-0.2-0.1-0.4-0.2-0.7-0.1c-3.7,0.3-5-1-5.2-4.6c-0.2-2.3-2.5-4-2.9-6.4c0-0.1-0.2-0.2-0.3-0.2c-1.7,0-1.3-1.1-1.1-2
		c-0.3,0.2-0.6,0.4-0.9,0.6c-0.5,0.5-1,1.1-1.4,1.7c0.3,0.9-0.1,1.6-0.4,2.3c-0.4,0.9-0.6,1.8,0.2,2.6c1.1,1.1,0.7,2.1-0.4,3
		c-1.3,1-0.8,1.7,0.3,2.4c1.2,0.7,2.5,1.2,3.6,2.1c0.4,0.4,1.1,0.7,0.7,1.4c-0.5,1,0.2,1.2,0.7,1.6c1.3,0.8,2.8,0.5,4.1-1
		c0.3-0.3,0.4-0.8,0.9-0.6c0.5,0.2,0.3,0.7,0.3,1.1c0.1,0.3,0.2,0.7,0.4,1c0.7-1,0.9,0,1.2,0.3c0.9,0.9,2,1.2,3.4,0.9
		C1.1,94.3,0.5,93.9-0.1,93.3z"/>
	<path class="st90" d="M4.7,75.3c1.1-0.8,1.8-0.2,2.3,0.8c0.3,0.6,0.6,1.4,0.9,2C7.4,78.5,7,79,6.3,79c-0.5,0-1.2-0.3-0.8-0.7
		C6.9,76.8,5.6,76.1,4.7,75.3z"/>
	<path class="st91" d="M78.8,50.8c0.9-1.5,1.8-3,2.7-4.6c0.3-0.1,0.7-0.3,1-0.4c1.1,0.1,2.3,0.3,2.7,1.7c-0.2,0.7-0.2,1.3,0,2
		c-0.2,1.5,1.1,1.8,2,2.2c1.4,0.5,2.5,1.3,3.2,2.5c0.4,0.7,1.4,0.2,1.9,0.8c0,0.6,0.1,1.2-0.4,1.7c-0.2,0.1-0.5,0.3-0.5,0.5
		c0,1.7-0.8,2.3-2.5,2.8c-1.3,0.3-1.6,0-1.9-0.8C86.6,58,86,57.8,85,58.5c-1.1,0.8-1.9,0.4-2.4-0.6c-0.4-0.8-0.8-1.7-1.5-2.3
		c-0.5-0.5-0.4-1.2-0.2-1.8c0.3-1,0.1-1.6-1-1.7C79.2,52,79,51.4,78.8,50.8z"/>
	<path class="st92" d="M84.7,47.6c-1.6,0.4-1.9-0.6-2.2-1.8c0.8-0.6,1.6-1,2.5-1.4c1,0,1.9,0.1,1.8,1.4c-0.2,0.2-0.3,0.4-0.5,0.6
		C86.2,47.6,85.8,48.2,84.7,47.6z"/>
	<path class="st93" d="M83.4,49.7c0.2-0.1,0.4-0.2,0.6-0.3c2.5-1.9,3.9-1.7,6,0.7c0.8,1.2,0.3,2.9,1.7,3.9c0.2,0.3,0.5,0.7,0.7,1
		c-1.2,0.8-1.9,0.7-2.8-0.6c-0.9-1.3-2.4-2.1-3.9-2.8C84.7,51.2,83.6,50.9,83.4,49.7z"/>
	<path class="st94" d="M68.2,84c0.1-0.2,0.3-0.4,0.4-0.6c1.1-1.5,0.9-3.3,1.8-4.9c0.3-0.5,0.3-1.4,1.3-0.8c1.2,2.2,3.1,2.9,5.6,3
		c1.1,0,2.6,0.9,2.2,2.7c-1.2-0.1-2.3,0.3-3.3,0.9c-1.7,0.9-3.5,1.3-5.4,1.1C69.7,85.2,68.8,84.9,68.2,84z"/>
	<path class="st95" d="M15.9,78.3c0.3,0.5,0.8,0.9,0.4,1.5c-0.2,0.2-0.4,0.3-0.6,0.1C15.3,79.3,15.6,78.8,15.9,78.3
		C15.9,78.3,15.9,78.3,15.9,78.3z"/>
	<path class="st60" d="M-0.9,89.2C-1,89.1-1.1,89-1.3,88.9c0.7-0.4,0.1-2.2,1.9-1.4c-0.4-0.9-1.3-0.6-1.6-1.4
		c1.2-0.6,2.3-0.4,3.4,0.1c1.2,0.5,2.4,0.7,3.7,0.3c1.2-0.4,2,0.3,2.2,1.3c0.3,1.3-0.8,1.3-1.6,1.5c-1,0.2-2,0.4-3.1,0.6
		c-0.7,0.1-1.2,0.3-1.2,1.2c-0.6,0.8-1.1,1.6-2,0.2c-0.2-0.3-0.6-0.2-0.8-0.5C-0.3,90.2-0.5,89.7-0.9,89.2z"/>
	<path class="st96" d="M0.1,90.6c0.7,0.9,1.6,0.3,2.4,0.4c0.7,0.4,1.6,0.1,2.2,0.6c-1.6,1.7-3.4,1.7-4.3,0c-0.5-0.4-1.4-0.4-1.7-1.1
		C-0.8,89.9-0.3,89.8,0.1,90.6z"/>
	<path class="st77" d="M88.7,74.5c-0.5-1.2-0.9-2.5-1.2-3.9c-0.1,0.2-0.2,0.4-0.5,0.6c-1,0.1-1.3-1.1-2.2-1.1
		c-1.3-1.3-3.2-1.7-4.8-2.3c-1.1,0.1-2.4-0.7-3.2,0.8c0,0.1,0,0.2,0,0.3c0.8,0.8,1.4,1.7,1.6,2.8c0.4,1.7,1.3,3.1,2.4,4.3
		c0.6,0.7,1.2,1.3,1.5,2.1c0.9,2.2,3,3,4.9,3.9c0.8,0.4,1.4,0.6,1.6,1.6c0.1,0.6,0.3,1.1,1.1,1c1.1-0.1,2.2-0.2,3.3-0.2
		c0.2-0.4,0.4-0.8,0.5-1.2C91.3,80.8,89.9,77.6,88.7,74.5z"/>
	<path class="st97" d="M84.7,70.8c-1.4-0.9-2.9-1.5-4.5-1.9c-1.2-0.3-2.4-0.3-3.5,0c0,0,0,0,0,0c-0.4,0.1-0.9,0.2-1.3,0.3
		c0.7-1.9-0.1-4.1,1-5.9c0.1-0.2,0-0.6-0.1-0.8c-1.7-4.3,0.9-7.8,2.4-11.4c0-0.1,0.2-0.2,0.3-0.2c0.3,0,0.6,0.1,0.9,0.1
		c2.9,0.2,2.9,0.2,2.3,2.9c-0.1,0.5,1.4,3.6,1.8,3.8c0.4,0.1,0.6-0.1,0.9-0.3c1.5-1.3,2.7-1.1,3.3,0.8c0.6,1.8,1.1,0.9,1.8,0.2
		c0.7-0.6,0.8-1.9,2.1-1.7c0,0.1,0,0.1,0.1,0.2c-0.6,2.1-1.7,3.9-2.8,5.8c-0.7,0.7-1.5,1.3-2,2.1c-0.2,0-0.3,0.1-0.5,0.1
		c-0.9,0.1-1.1-0.4-1-1.2c0.1-0.7,0.2-1.5-0.8-1.8c0.7,0.3,0.8,0.8,0.8,1.5c-0.1,1.9-0.5,3.8,0.2,5.7C86.1,69.6,85.9,70.7,84.7,70.8
		z"/>
	<path class="st77" d="M84.1,85.4c0.1-0.8,0.3-1.5,1.3-1.5c0.6,0,1.4,0.2,1.2,0.9c-0.2,0.9-0.4,2.1-1.5,2.2
		C84.4,87.1,84.2,86.2,84.1,85.4z"/>
	<path class="st77" d="M80.2,81.9c0-0.5,0-1.3,0.6-1.2c1.2,0.2,1.5,1.3,1.7,2.3c0.1,0.5,0.1,1.3-0.6,1.2
		C80.7,84,80.5,82.8,80.2,81.9z"/>
	<path class="st77" d="M88.3,86.7c0.6,0.4,0.5,0.9,0.3,1.4c-0.1,0.3-0.4,0.3-0.6,0C87.8,87.5,87.7,87,88.3,86.7z"/>
	<path class="st98" d="M0.1,90.6c-0.5,0-0.9,0-1.4,0c-0.3,0.1-0.6,0.3-0.8,0.2c-0.3-0.1-0.1-0.4,0.1-0.5c0.3-0.4,0.7-0.7,1-1.1
		c0.6,0.1,1.3-0.1,1.6,0.6C1,90.3,0.5,90.5,0.1,90.6z"/>
	<path class="st91" d="M86.9,51.2c-0.1-0.1-0.3-0.1-0.4-0.2c-0.1-0.4,0.2-0.5,0.5-0.6c0.2-0.1,0.5-0.1,0.5,0.2
		C87.6,51,87.3,51.1,86.9,51.2z"/>
	<path class="st99" d="M52.4,66.5"/>
	<path class="st100" d="M86.8,64.4c0,0.1-0.1,0.3-0.1,0.4c0.3,2,0.8,4,0.7,6c0,0.6-0.1,1-0.6,1.2c-0.9-0.1-1.4-0.8-2.1-1.3
		c0.4-1,0.7-2-0.1-2.9c-0.6-0.9-0.1-1.8,0-2.7c0.2-1.5,0.8-3.1-1.6-3.6c2.1-1.1,3.4-0.4,3.6,1.5C86.6,63.5,86.7,64,86.8,64.4z"/>
	<path class="st86" d="M76.6,69c1.2-0.5,2.4-0.4,3.5,0C79,69,77.8,69,76.6,69z"/>
</g>
</svg>
